<?xml version="1.0" encoding="utf-8"?>
<!-- Generator: Adobe Illustrator 24.0.1, SVG Export Plug-In . SVG Version: 6.00 Build 0)  -->
<svg version="1.1" id="Layer_1" xmlns="http://www.w3.org/2000/svg" xmlns:xlink="http://www.w3.org/1999/xlink" x="0px" y="0px"
	 viewBox="0 0 20 20" style="enable-background:new 0 0 20 20;" xml:space="preserve">
<path d="M19.6,9.6C19.6,9.6,19.6,9.6,19.6,9.6c0.1,0,0.2-0.1,0.3-0.1C20,9.3,20,9.2,20,9.1c-0.4-4.8-4.3-8.6-9.1-9.1
	c-0.1,0-0.2,0-0.3,0.1c-0.1,0.1-0.1,0.2-0.1,0.3C10.5,6.8,11.4,9.5,19.6,9.6z M19.6,10.4c-8.2,0.1-9,2.7-9.1,9.1
	c0,0.1,0,0.2,0.1,0.3c0.1,0.1,0.2,0.1,0.3,0.1c0,0,0,0,0,0c4.8-0.4,8.6-4.3,9.1-9.1c0-0.1,0-0.2-0.1-0.3
	C19.8,10.5,19.7,10.4,19.6,10.4z M9,0C4.2,0.5,0.4,4.3,0,9.1c0,0.1,0,0.2,0.1,0.3c0.1,0.1,0.2,0.1,0.3,0.1c0,0,0,0,0,0
	c8.2-0.1,9-2.7,9.1-9.1c0-0.1,0-0.2-0.1-0.3C9.3,0,9.2,0,9,0z M0.4,10.4c-0.1,0-0.2,0-0.3,0.1C0,10.7,0,10.8,0,10.9
	c0.4,4.8,4.2,8.6,9,9.1c0,0,0,0,0,0c0.1,0,0.2,0,0.3-0.1c0.1-0.1,0.1-0.2,0.1-0.3C9.5,13.2,8.6,10.5,0.4,10.4z"/>
</svg>
