<?xml version="1.0" encoding="utf-8"?>
<!-- Generator: Adobe Illustrator 24.0.1, SVG Export Plug-In . SVG Version: 6.00 Build 0)  -->
<svg version="1.1" id="Layer_1" xmlns="http://www.w3.org/2000/svg" xmlns:xlink="http://www.w3.org/1999/xlink" x="0px" y="0px"
	 viewBox="0 0 60 60" style="enable-background:new 0 0 60 60;" xml:space="preserve">
<style type="text/css">
	.st0{fill:#FFFFFF;}
</style>
<g>
	<path d="M60,59.9c-20.1,0-40.2,0-60.3,0c0-20.1,0-40.2,0-60.3c20.1,0,40.1,0,60.3,0C60,19.7,60,39.8,60,59.9z M15.6,30.7
		c-0.2-0.3-0.3-0.5-0.3-0.8c-0.3-1.9-0.7-3.8-1-5.7c-0.1-0.3,0-0.7-0.4-0.9c-0.3,1-0.2,9.2,0.1,9.9c0.1-1.2,0.1-2.4,0.1-3.7
		c0-1.2,0-2.4,0-3.7c0.4,1.1,0.6,2.3,0.8,3.4c0.2,1.2,0.4,2.3,0.6,3.5c0,0.2,0,0.5,0.5,0.4c0.1-0.8,0-1.6,0.1-2.4c0-0.8,0-1.6,0-2.5
		c0-0.9,0-1.7,0-2.6c0-0.8,0.2-1.6-0.3-2.3C15.6,25.8,15.6,28.2,15.6,30.7z M43.8,28c0.7-0.9,0.8-1.8,0.8-2.8c0-1.8-0.2-2-2.1-1.9
		c-0.1,0-0.1,0.1-0.2,0.1c0,3.2,0,6.5,0,9.8c0.3,0,0.6,0,0.8,0c1.2,0,1.4-0.3,1.5-1.4c0-0.8,0-1.5,0-2.3
		C44.6,28.9,44.4,28.3,43.8,28z M37.9,28.6c0.6,0.6,0.8,1.3,0.8,2c0,0.7,0,1.4,0,2.1c0,0.2-0.1,0.4,0.3,0.4c0.1-0.8,0-1.7,0.1-2.5
		c0.1-1-0.5-1.7-0.9-2.5c0.8-0.9,0.9-2,0.9-3.1c0-1.6-0.2-1.8-1.8-1.7c-0.1,0-0.2,0.1-0.3,0.1c-0.2,0.3-0.1,0.6-0.1,0.9
		c0,3-0.1,5.9,0.1,8.9c0,0,0,0,0.1,0c0.1,0,0-0.1,0.1,0C37.3,31.7,36.6,30,37.9,28.6z M25.4,28.3c0-1.3,0-2.6,0-3.9
		c0-0.8-0.4-1.2-1.1-1.2c-0.8,0-1.2,0.4-1.2,1.3c0,2.5,0,5.1,0,7.6c0,0.1,0,0.3,0,0.4c0.1,0.6,0.4,0.9,1,0.9
		c0.9,0.1,1.3-0.2,1.3-1.2C25.4,30.8,25.4,29.5,25.4,28.3z M19.1,26.8c0.2-0.9,0.2-1.9,0.1-2.8c-0.1-0.6-0.6-0.9-1.2-0.8
		c-0.6,0.1-1,0.4-1,1c-0.1,1.6-0.1,3.1,1.1,4.4c0.1,0.1,0.2,0.3,0.3,0.5c0.7,1,0.5,2.2,0.4,3.4c0,0.4-0.4,0.6-0.8,0.6
		c-0.4,0-0.7-0.2-0.7-0.7c0-0.7,0-1.3,0-2c0-0.2,0.1-0.5-0.3-0.7c-0.1,1-0.1,2,0,3c0,0.3,0.2,0.5,0.6,0.6c1,0.3,1.6-0.1,1.7-1.1
		c0.1-1.6-0.1-3-1.2-4.2c-1-1.1-0.8-2.4-0.7-3.7c0-0.4,0.3-0.6,0.7-0.6c0.4,0,0.7,0.2,0.8,0.6c0,0.3,0,0.6,0.1,0.9
		C18.9,25.6,18.8,26.2,19.1,26.8z M10.5,28.2c0,1.3,0,2.6,0,3.9c0,0.9,0.3,1.2,1.1,1.2c0.8,0,1.1-0.3,1.2-1.1c0-2.6,0-5.3,0-7.9
		c0-0.8-0.4-1.2-1.2-1.1c-0.8,0-1.1,0.3-1.1,1.2C10.5,25.6,10.5,26.9,10.5,28.2z M26.4,23.4c-0.2,1.2-0.2,9.1,0.1,9.9
		c0.2-0.6,0.1-1.1,0.1-1.6c-0.1-1.3,0.2-2.5,1.1-3.5c0.8-0.9,0.9-2,0.9-3.1c0-1.8-0.6-1.8-2-1.7C26.5,23.3,26.5,23.3,26.4,23.4z
		 M29.5,33.1c0.8,0.1,0.8,0.1,1.2-0.2c-0.2-0.2-0.6,0-0.8-0.3c0-1.4,0-2.8,0-4.1c0.3-0.2,0.7,0,0.9-0.4c-0.3-0.3-0.7,0-0.9-0.4
		c0-1.4,0-2.7,0-4c0.2-0.3,0.6-0.1,0.8-0.4c-0.4-0.2-0.8-0.2-1.2,0C29.5,26.6,29.5,29.9,29.5,33.1z M45.5,23.3c0,3.3,0,6.6,0,9.8
		c0.5,0,0.9,0.1,1.3-0.1c-0.3-0.4-0.7-0.1-0.9-0.4c0-1.4,0-2.8,0-4.2c0.3-0.2,0.7,0,0.9-0.3c-0.2-0.4-0.7-0.1-0.9-0.4
		c0-1.4,0-2.8,0-4.1c0.2-0.3,0.7-0.1,0.9-0.4C46.3,23.2,45.9,23.2,45.5,23.3z M20.6,23.8c0.1,0.3,0.1,0.7,0.1,1.1c0,2.5,0,5,0,7.5
		c0,0.3-0.2,0.7,0.4,0.9c0-3.2,0-6.4,0-9.4c0.3-0.4,0.8-0.1,1-0.6c-0.8,0-1.6-0.1-2.3,0.1C20,23.7,20.4,23.5,20.6,23.8z M32,23.4
		c-0.1,0-0.2,0-0.3,0c0,3.3,0,6.5,0,9.8c0.5,0,0.9,0.1,1.4-0.1c-0.3-0.3-0.7-0.1-1.1-0.5C32,29.6,32,26.5,32,23.4z M48.1,23.4
		c-0.1,0-0.2,0-0.3,0c0,3.3,0,6.5,0,9.8c0.7,0.1,0.7,0.1,1.2-0.1c-0.2-0.3-0.6,0-0.9-0.3C48.1,29.6,48.2,26.5,48.1,23.4z M40.4,28.6
		c0.4-0.2,0.7,0,1-0.3c-0.3-0.4-0.7-0.1-1-0.4c0-1.4,0-2.8,0-4.1c0.3-0.3,0.7,0,0.9-0.4c-0.6-0.2-0.6-0.2-1.2,0c0,3.2,0,6.5,0,9.7
		c0.5,0.1,0.9,0.1,1.3,0c-0.3-0.4-0.7-0.1-1-0.5C40.4,31.4,40.4,30,40.4,28.6z M36,33c-0.7-0.1-1.4-0.3-2.3,0.1
		C34.7,33.3,35.3,33.3,36,33z"/>
	<path class="st0" d="M15.6,30.7c0-2.5,0-4.9,0.1-7.4c0.4,0.8,0.2,1.6,0.3,2.3c0,0.9,0,1.7,0,2.6c0,0.8,0,1.7,0,2.5
		c0,0.8,0.1,1.6-0.1,2.4c-0.5,0.1-0.4-0.2-0.5-0.4c-0.2-1.2-0.4-2.3-0.6-3.5c-0.2-1.1-0.4-2.3-0.8-3.4c0,1.2,0,2.4,0,3.7
		c0,1.2,0,2.4-0.1,3.7c-0.4-0.6-0.4-8.9-0.1-9.9c0.4,0.2,0.4,0.6,0.4,0.9c0.3,1.9,0.7,3.8,1,5.7C15.4,30.2,15.4,30.5,15.6,30.7z"/>
	<path class="st0" d="M43.8,28c0.7,0.4,0.8,0.9,0.8,1.5c0,0.8,0,1.5,0,2.3c0,1.2-0.3,1.5-1.5,1.4c-0.3,0-0.5,0-0.8,0
		c0-3.3,0-6.5,0-9.8c0.1-0.1,0.1-0.1,0.2-0.1c1.8-0.2,2.1,0,2.1,1.9C44.6,26.1,44.5,27.1,43.8,28z M42.7,28.8c1.2-1.2,1.7-2.4,1.5-4
		c-0.1-1.1-0.4-1.3-1.5-1.1C42.7,25.4,42.7,27,42.7,28.8z M43.6,28.4c-1.4,1.3-0.9,2.9-0.9,4.4c1.3,0.1,1.5,0,1.6-1.2
		c0-0.7,0-1.4,0-2.1C44.2,29.1,44.2,28.7,43.6,28.4z"/>
	<path class="st0" d="M37.9,28.6c-1.3,1.4-0.6,3-0.9,4.5c-0.1-0.1,0,0-0.1,0c0,0-0.1,0-0.1,0c-0.2-3,0-5.9-0.1-8.9
		c0-0.3-0.1-0.6,0.1-0.9c0.1,0,0.2-0.1,0.3-0.1c1.6-0.1,1.8,0.1,1.8,1.7c0,1.2-0.1,2.2-0.9,3.1c0.4,0.8,1,1.5,0.9,2.5
		c-0.1,0.8,0.1,1.7-0.1,2.5c-0.4,0-0.3-0.2-0.3-0.4c0-0.7,0-1.4,0-2.1C38.7,29.9,38.5,29.2,37.9,28.6z M37.2,28.8
		c1.2-1.2,1.7-2.4,1.5-4c-0.1-1.2-0.4-1.4-1.5-1C37.2,25.4,37.2,27,37.2,28.8z"/>
	<path class="st0" d="M25.4,28.3c0,1.3,0,2.6,0,3.9c0,0.9-0.4,1.2-1.3,1.2c-0.6,0-0.9-0.3-1-0.9c0-0.1,0-0.3,0-0.4
		c0-2.5,0-5.1,0-7.6c0-0.9,0.4-1.3,1.2-1.3c0.7,0,1.1,0.4,1.1,1.2C25.4,25.6,25.4,26.9,25.4,28.3z M25,28.3c0-1.2,0-2.3,0-3.5
		c0-1-0.2-1.3-0.8-1.3c-0.5,0-0.7,0.3-0.7,1.3c0,2.3,0,4.6,0,6.9c0,0.3,0,0.5,0.1,0.8c0.1,0.3,0.4,0.4,0.7,0.4
		c0.3,0,0.6-0.1,0.7-0.4C25,32.2,25,32,25,31.7C25,30.6,25,29.4,25,28.3z"/>
	<path class="st0" d="M19.1,26.8c-0.3-0.6-0.2-1.2-0.2-1.8c0-0.3,0-0.6-0.1-0.9c-0.1-0.4-0.3-0.6-0.8-0.6c-0.4,0-0.7,0.2-0.7,0.6
		c0,1.3-0.2,2.6,0.7,3.7c1.1,1.2,1.3,2.7,1.2,4.2c-0.1,1-0.7,1.5-1.7,1.1c-0.3-0.1-0.5-0.3-0.6-0.6c-0.1-1-0.1-1.9,0-3
		c0.4,0.2,0.3,0.4,0.3,0.7c0,0.7,0,1.3,0,2c0,0.4,0.3,0.7,0.7,0.7c0.4,0,0.7-0.2,0.8-0.6c0.1-1.1,0.3-2.3-0.4-3.4
		c-0.1-0.2-0.2-0.4-0.3-0.5c-1.2-1.2-1.2-2.8-1.1-4.4c0-0.6,0.4-0.9,1-1c0.7-0.1,1.2,0.2,1.2,0.8C19.3,24.9,19.2,25.9,19.1,26.8z"/>
	<path class="st0" d="M10.5,28.2c0-1.3,0-2.6,0-3.8c0-0.8,0.3-1.2,1.1-1.2c0.8,0,1.2,0.3,1.2,1.1c0,2.6,0,5.3,0,7.9
		c0,0.9-0.3,1.1-1.2,1.1c-0.8,0-1.1-0.3-1.1-1.2C10.5,30.8,10.5,29.5,10.5,28.2z M10.9,28.3C10.9,28.3,10.9,28.3,10.9,28.3
		c0,1.3,0,2.6,0,3.9c0,0.4,0.2,0.7,0.6,0.7c0.5,0,0.8-0.1,0.8-0.6c0-0.2,0.1-0.5,0.1-0.7c0-2.2,0-4.5,0-6.7c0-0.3,0-0.6-0.1-0.9
		c-0.1-0.4-0.4-0.5-0.7-0.5c-0.6,0-0.7,0.4-0.7,0.9C10.9,25.7,10.9,27,10.9,28.3z"/>
	<path class="st0" d="M26.4,23.4c0.1,0,0.2-0.1,0.3-0.1c1.4-0.1,2-0.1,2,1.7c0,1.2-0.2,2.2-0.9,3.1c-0.9,1-1.2,2.2-1.1,3.5
		c0,0.5,0.1,1-0.1,1.6C26.2,32.5,26.1,24.5,26.4,23.4z M26.6,28.8c1.2-1.2,1.7-2.5,1.6-4c-0.1-1.1-0.4-1.3-1.6-1
		C26.6,25.4,26.6,27,26.6,28.8z"/>
	<path class="st0" d="M29.5,33.1c0-3.3,0-6.5,0-9.8c0.4-0.2,0.8-0.2,1.2,0c-0.2,0.3-0.6,0.1-0.8,0.4c0,1.3,0,2.7,0,4
		c0.2,0.4,0.7,0.1,0.9,0.4c-0.2,0.4-0.6,0.1-0.9,0.4c0,1.3,0,2.7,0,4.1c0.2,0.3,0.6,0.1,0.8,0.3C30.2,33.2,30.2,33.2,29.5,33.1z"/>
	<path class="st0" d="M45.5,23.3c0.4-0.1,0.8-0.1,1.2,0c-0.2,0.4-0.6,0.1-0.9,0.4c0,1.4,0,2.8,0,4.1c0.3,0.3,0.7,0,0.9,0.4
		c-0.2,0.3-0.6,0.1-0.9,0.3c0,1.4,0,2.8,0,4.2c0.2,0.3,0.7,0,0.9,0.4c-0.4,0.2-0.8,0.1-1.3,0.1C45.5,29.9,45.5,26.6,45.5,23.3z"/>
	<path class="st0" d="M20.6,23.8c-0.2-0.3-0.6-0.1-0.8-0.4c0.8-0.2,1.5-0.1,2.3-0.1c-0.2,0.4-0.7,0.2-1,0.6c0,3,0,6.1,0,9.4
		c-0.6-0.2-0.4-0.6-0.4-0.9c0-2.5,0-5,0-7.5C20.7,24.5,20.7,24.1,20.6,23.8z"/>
	<path class="st0" d="M32,23.4c0,3.1,0,6.2,0,9.2c0.3,0.5,0.8,0.2,1.1,0.5c-0.4,0.3-0.9,0.1-1.4,0.1c0-3.3,0-6.6,0-9.8
		C31.8,23.4,31.9,23.4,32,23.4z"/>
	<path class="st0" d="M48.1,23.4c0.1,3.1,0,6.2,0,9.3c0.3,0.3,0.7,0.1,0.9,0.3c-0.5,0.2-0.5,0.2-1.2,0.1c0-3.3,0-6.5,0-9.8
		C47.9,23.4,48,23.4,48.1,23.4z"/>
	<path class="st0" d="M40.4,28.6c0,1.4,0,2.8,0,4.1c0.3,0.4,0.7,0,1,0.5c-0.4,0.2-0.8,0.1-1.3,0c0-3.3,0-6.5,0-9.7
		c0.6-0.2,0.6-0.2,1.2,0c-0.2,0.3-0.6,0.1-0.9,0.4c0,1.3,0,2.7,0,4.1c0.2,0.3,0.7,0,1,0.4C41.1,28.6,40.7,28.4,40.4,28.6z"/>
	<path class="st0" d="M36,33c-0.7,0.3-1.3,0.3-2.3,0.1C34.6,32.7,35.3,32.9,36,33z"/>
	<path d="M42.7,28.8c0-1.7,0-3.4,0-5c1.2-0.3,1.4,0,1.5,1.1C44.3,26.3,43.8,27.6,42.7,28.8z"/>
	<path d="M43.6,28.4c0.6,0.2,0.6,0.7,0.6,1.1c0,0.7,0,1.4,0,2.1c0,1.2-0.2,1.3-1.6,1.2C42.7,31.3,42.2,29.7,43.6,28.4z"/>
	<path d="M37.2,28.8c0-1.7,0-3.4,0-5c1.1-0.4,1.4-0.1,1.5,1C38.8,26.4,38.3,27.6,37.2,28.8z"/>
	<path d="M25,28.3c0,1.2,0,2.3,0,3.5c0,0.3,0,0.5-0.1,0.8c-0.1,0.3-0.4,0.4-0.7,0.4c-0.3,0-0.6-0.1-0.7-0.4
		c-0.1-0.2-0.1-0.5-0.1-0.8c0-2.3,0-4.6,0-6.9c0-0.9,0.2-1.2,0.7-1.3c0.6,0,0.8,0.3,0.8,1.3C25,26,25,27.1,25,28.3z"/>
	<path d="M10.9,28.3c0-1.3,0-2.6,0-3.8c0-0.5,0.2-0.8,0.7-0.9c0.4,0,0.7,0.1,0.7,0.5c0.1,0.3,0.1,0.6,0.1,0.9c0,2.2,0,4.5,0,6.7
		c0,0.2,0,0.5-0.1,0.7c-0.1,0.5-0.4,0.7-0.8,0.6c-0.4,0-0.6-0.3-0.6-0.7C10.9,30.9,10.9,29.6,10.9,28.3
		C10.9,28.3,10.9,28.3,10.9,28.3z"/>
	<path d="M26.6,28.8c0-1.8,0-3.4,0-5c1.1-0.4,1.5-0.1,1.6,1C28.3,26.3,27.8,27.6,26.6,28.8z"/>
</g>
</svg>
