<?xml version="1.0" encoding="utf-8"?>
<!-- Generator: Adobe Illustrator 24.0.1, SVG Export Plug-In . SVG Version: 6.00 Build 0)  -->
<svg version="1.1" id="Layer_1" xmlns="http://www.w3.org/2000/svg" xmlns:xlink="http://www.w3.org/1999/xlink" x="0px" y="0px"
	 viewBox="0 0 30 30" style="enable-background:new 0 0 30 30;" xml:space="preserve">
<path d="M21.3,21.9c1.7,2.7,3.2,5.2,4.9,7.9c-2,0-3.9,0-5.8,0c-0.3,0-0.7-0.5-0.9-0.9c-1.2-1.9-2.3-3.9-3.4-5.8
	c-0.3-0.4-0.8-1-1.2-1c-3.1-0.1-6.2,0-9.4,0c0,2.7,0,5.3,0,8c-1.9,0-3.6,0-5.5,0c0-8.2,0-16.4,0-25c2.8,0,5.7,0,8.6,0
	c3.8,0.1,7.7,0.2,11.5,0.3c3.3,0.1,5.2,2,5.5,5.8c0.1,1.7,0,3.5,0,5.2C25.5,19.2,24.1,21.1,21.3,21.9z M5.6,16.1c4,0,7.9,0.1,11.9,0
	c2.6-0.1,2.8-0.4,2.7-3.5c0-1.1-0.4-1.8-1.4-1.8c-4.4,0-8.7,0-13.1,0C5.6,12.6,5.6,14.4,5.6,16.1z M30,3c0,1.7-1.1,3-2.6,3
	c-1.4,0-2.6-1.3-2.6-3s1.1-3,2.6-3C28.9,0,30,1.4,30,3z"/>
</svg>
