<?xml version="1.0" encoding="utf-8"?>
<!-- Generator: Adobe Illustrator 24.0.1, SVG Export Plug-In . SVG Version: 6.00 Build 0)  -->
<svg version="1.1" id="Layer_1" xmlns="http://www.w3.org/2000/svg" xmlns:xlink="http://www.w3.org/1999/xlink" x="0px" y="0px"
	 viewBox="0 0 16 16" style="enable-background:new 0 0 16 16;" xml:space="preserve">
<path d="M11.37,10.83c0.9,1.25,1.72,2.4,2.6,3.64c-1.09,0-2.09,0.02-3.1-0.02c-0.17-0.01-0.35-0.25-0.47-0.43
	c-0.62-0.89-1.21-1.8-1.83-2.67c-0.15-0.2-0.41-0.45-0.62-0.46c-1.64-0.04-3.29-0.02-5.03-0.02c0,1.26,0,2.45,0,3.68
	c-1.02,0-1.94,0-2.92,0c0-3.78,0-7.52,0-11.48c1.52,0,3.05-0.02,4.57,0c2.05,0.03,4.09,0.08,6.14,0.12
	c1.75,0.03,2.76,0.91,2.92,2.66c0.07,0.79,0.02,1.59,0,2.38C13.59,9.61,12.87,10.45,11.37,10.83z M2.97,8.19
	c2.14,0,4.24,0.03,6.33-0.01c1.39-0.03,1.48-0.2,1.42-1.61c-0.02-0.52-0.22-0.82-0.75-0.82c-2.33-0.01-4.65,0-7.01,0
	C2.97,6.58,2.97,7.39,2.97,8.19z M16,2.16c0,0.76-0.61,1.37-1.37,1.37c-0.76,0-1.37-0.61-1.37-1.37s0.61-1.37,1.37-1.37
	C15.39,0.8,16,1.41,16,2.16z"/>
</svg>
