<?xml version="1.0" encoding="utf-8"?>
<!-- Generator: Adobe Illustrator 24.0.1, SVG Export Plug-In . SVG Version: 6.00 Build 0)  -->
<svg version="1.1" id="Layer_1" xmlns="http://www.w3.org/2000/svg" xmlns:xlink="http://www.w3.org/1999/xlink" x="0px" y="0px"
	 viewBox="0 0 30 30" style="enable-background:new 0 0 30 30;" xml:space="preserve">
<path d="M18.9,19.6c1-0.2,2.5,2.2,3.9,3.5c1.2,0.7,2,0.5,2,0.5h3.9c0,0,2-0.2,1-1.7c0-0.2-0.5-1.2-3-3.5s-2.2-2,0.7-5.9
	c1.7-2.5,2.5-3.9,2.2-4.7c0.2-0.7-1.2-0.7-1.2-0.7h-4.4c-0.5,0-0.7,0.2-1,0.5c0,0-0.7,2-1.7,3.5c-1.7,3.7-2.7,3.9-3,3.7
	c-0.7-0.5-0.5-2-0.5-3c0-3.2,0.5-4.7-1-4.9c-0.5-0.2-1-0.5-2.2-0.5c-1.5,0-3,0-3.7,0.5c-0.5,0.2-0.7,0.7-0.5,0.7
	c0.2,0,1,0.2,1.2,0.7c0.5,0.5,0.5,2,0.5,2s0.2,3.9-0.7,4.4c-0.5,0.2-1.2-0.2-3.2-3.5C7.5,9.8,6.8,7.8,6.8,7.8S6.5,7.6,6.3,7.3
	C6,7.3,5.8,7.1,5.8,7.1H1.4c0,0-0.7,0-1,0.2c-0.2,0.2,0,0.7,0,0.7s3.2,7.9,7.2,11.8c3.5,3.7,7.4,3.5,7.4,3.5h1.7c0,0,0.5,0,0.7-0.2
	s0.2-0.7,0.2-0.7S17.9,19.9,18.9,19.6z"/>
</svg>
