<?xml version="1.0" encoding="utf-8"?>
<!-- Generator: Adobe Illustrator 24.0.1, SVG Export Plug-In . SVG Version: 6.00 Build 0)  -->
<svg version="1.1" id="Layer_1" xmlns="http://www.w3.org/2000/svg" xmlns:xlink="http://www.w3.org/1999/xlink" x="0px" y="0px"
	 viewBox="0 0 30 30" style="enable-background:new 0 0 30 30;" xml:space="preserve">
<g>
	<path d="M0,5.7C1.5,4.1,3,2.6,4.5,1C8,4.7,11.5,8.4,15,12.1C18.5,8.4,22,4.7,25.5,1c1.5,1.6,3,3.1,4.5,4.7
		c-0.3,0.3-0.5,0.5-0.7,0.8c-2.4,2.5-4.7,5-7.1,7.4c-2,2.1-4.5,3.1-7.3,3.1c-2.8,0-5.2-1.1-7.2-3.2c-2.5-2.6-5-5.2-7.4-7.9
		C0.2,5.9,0.1,5.9,0,5.7z"/>
	<path d="M18.2,29c-2.1,0-4.2,0-6.3,0c0-0.1,0-0.2,0-0.3c0-2.6,0-5.2,0-7.8c0-0.9,0.5-1.6,1.3-1.9c0.2-0.1,0.5-0.1,0.7-0.1
		c0.7,0,1.5,0,2.2,0c1.4,0,2.1,0.8,2.1,2.2c0,2.4,0,4.8,0,7.2C18.2,28.6,18.2,28.8,18.2,29z"/>
</g>
</svg>
