<svg xmlns="http://www.w3.org/2000/svg" xmlns:xlink="http://www.w3.org/1999/xlink"><symbol id="dzen" viewBox="0 0 20 20"><path d="M19.6 9.6c.1 0 .2-.1.3-.1.1-.2.1-.3.1-.4-.4-4.8-4.3-8.6-9.1-9.1-.1 0-.2 0-.3.1-.1.1-.1.2-.1.3 0 6.4.9 9.1 9.1 9.2zm0 .8c-8.2.1-9 2.7-9.1 9.1 0 .1 0 .2.1.3.1.1.2.1.3.1 4.8-.4 8.6-4.3 9.1-9.1 0-.1 0-.2-.1-.3-.1 0-.2-.1-.3-.1zM9 0C4.2.5.4 4.3 0 9.1c0 .1 0 .2.1.3.1.1.2.1.3.1 8.2-.1 9-2.7 9.1-9.1 0-.1 0-.2-.1-.3C9.3 0 9.2 0 9 0zM.4 10.4c-.1 0-.2 0-.3.1-.1.2-.1.3-.1.4.4 4.8 4.2 8.6 9 9.1.1 0 .2 0 .3-.1.1-.1.1-.2.1-.3.1-6.4-.8-9.1-9-9.2z"/></symbol><symbol id="instagram" viewBox="0 0 16 16"><path d="M8 0C5.829 0 5.556.01 4.703.048 3.85.088 3.269.222 2.76.42a3.917 3.917 0 00-1.417.923A3.927 3.927 0 00.42 2.76C.222 3.268.087 3.85.048 4.7.01 5.555 0 5.827 0 8.001c0 2.172.01 2.444.048 3.297.04.852.174 1.433.372 1.942.205.526.478.972.923 1.417.444.445.89.719 1.416.923.51.198 1.09.333 1.942.372C5.555 15.99 5.827 16 8 16s2.444-.01 3.298-.048c.851-.04 1.434-.174 1.943-.372a3.916 3.916 0 001.416-.923c.445-.445.718-.891.923-1.417.197-.509.332-1.09.372-1.942C15.99 10.445 16 10.173 16 8s-.01-2.445-.048-3.299c-.04-.851-.175-1.433-.372-1.941a3.926 3.926 0 00-.923-1.417A3.911 3.911 0 0013.24.42c-.51-.198-1.092-.333-1.943-.372C10.443.01 10.172 0 7.998 0h.003zm-.717 1.442h.718c2.136 0 2.389.007 3.232.046.78.035 1.204.166 1.486.275.373.145.64.319.92.599.28.28.453.546.598.92.11.281.24.705.275 1.485.039.843.047 1.096.047 3.231s-.008 2.389-.047 3.232c-.035.78-.166 1.203-.275 1.485a2.47 2.47 0 01-.599.919c-.28.28-.546.453-.92.598-.28.11-.704.24-1.485.276-.843.038-1.096.047-3.232.047s-2.39-.009-3.233-.047c-.78-.036-1.203-.166-1.485-.276a2.478 2.478 0 01-.92-.598 2.48 2.48 0 01-.6-.92c-.109-.281-.24-.705-.275-1.485-.038-.843-.046-1.096-.046-3.233 0-2.136.008-2.388.046-3.231.036-.78.166-1.204.276-1.486.145-.373.319-.64.599-.92.28-.28.546-.453.92-.598.282-.11.705-.24 1.485-.276.738-.034 1.024-.044 2.515-.045v.002zm4.988 1.328a.96.96 0 100 1.92.96.96 0 000-1.92zm-4.27 1.122a4.109 4.109 0 100 8.217 4.109 4.109 0 000-8.217zm0 1.441a2.667 2.667 0 110 5.334 2.667 2.667 0 010-5.334z"/></symbol><symbol id="onstopel_rebel-logo" viewBox="0 0 60 60"><path d="M60 59.9H-.3V-.4H60v60.3zM15.6 30.7c-.2-.3-.3-.5-.3-.8-.3-1.9-.7-3.8-1-5.7-.1-.3 0-.7-.4-.9-.3 1-.2 9.2.1 9.9.1-1.2.1-2.4.1-3.7v-3.7c.4 1.1.6 2.3.8 3.4.2 1.2.4 2.3.6 3.5 0 .2 0 .5.5.4.1-.8 0-1.6.1-2.4v-5.1c0-.8.2-1.6-.3-2.3-.2 2.5-.2 4.9-.2 7.4zM43.8 28c.7-.9.8-1.8.8-2.8 0-1.8-.2-2-2.1-1.9-.1 0-.1.1-.2.1v9.8h.8c1.2 0 1.4-.3 1.5-1.4v-2.3c0-.6-.2-1.2-.8-1.5zm-5.9.6c.6.6.8 1.3.8 2v2.1c0 .2-.1.4.3.4.1-.8 0-1.7.1-2.5.1-1-.5-1.7-.9-2.5.8-.9.9-2 .9-3.1 0-1.6-.2-1.8-1.8-1.7-.1 0-.2.1-.3.1-.2.3-.1.6-.1.9 0 3-.1 5.9.1 8.9h.1c.1 0 0-.1.1 0 .1-1.5-.6-3.2.7-4.6zm-12.5-.3v-3.9c0-.8-.4-1.2-1.1-1.2-.8 0-1.2.4-1.2 1.3v8c.1.6.4.9 1 .9.9.1 1.3-.2 1.3-1.2v-3.9zm-6.3-1.5c.2-.9.2-1.9.1-2.8-.1-.6-.6-.9-1.2-.8-.6.1-1 .4-1 1-.1 1.6-.1 3.1 1.1 4.4.1.1.2.3.3.5.7 1 .5 2.2.4 3.4 0 .4-.4.6-.8.6s-.7-.2-.7-.7v-2c0-.2.1-.5-.3-.7-.1 1-.1 2 0 3 0 .3.2.5.6.6 1 .3 1.6-.1 1.7-1.1.1-1.6-.1-3-1.2-4.2-1-1.1-.8-2.4-.7-3.7 0-.4.3-.6.7-.6.4 0 .7.2.8.6 0 .3 0 .6.1.9-.1.4-.2 1 .1 1.6zm-8.6 1.4v3.9c0 .9.3 1.2 1.1 1.2s1.1-.3 1.2-1.1v-7.9c0-.8-.4-1.2-1.2-1.1-.8 0-1.1.3-1.1 1.2v3.8zm15.9-4.8c-.2 1.2-.2 9.1.1 9.9.2-.6.1-1.1.1-1.6-.1-1.3.2-2.5 1.1-3.5.8-.9.9-2 .9-3.1 0-1.8-.6-1.8-2-1.7-.1-.1-.1-.1-.2 0zm3.1 9.7c.8.1.8.1 1.2-.2-.2-.2-.6 0-.8-.3v-4.1c.3-.2.7 0 .9-.4-.3-.3-.7 0-.9-.4v-4c.2-.3.6-.1.8-.4-.4-.2-.8-.2-1.2 0v9.8zm16-9.8v9.8c.5 0 .9.1 1.3-.1-.3-.4-.7-.1-.9-.4v-4.2c.3-.2.7 0 .9-.3-.2-.4-.7-.1-.9-.4v-4.1c.2-.3.7-.1.9-.4-.5 0-.9 0-1.3.1zm-24.9.5c.1.3.1.7.1 1.1v7.5c0 .3-.2.7.4.9v-9.4c.3-.4.8-.1 1-.6-.8 0-1.6-.1-2.3.1.2.3.6.1.8.4zm11.4-.4h-.3v9.8c.5 0 .9.1 1.4-.1-.3-.3-.7-.1-1.1-.5v-9.2zm16.1 0h-.3v9.8c.7.1.7.1 1.2-.1-.2-.3-.6 0-.9-.3 0-3.2.1-6.3 0-9.4zm-7.7 5.2c.4-.2.7 0 1-.3-.3-.4-.7-.1-1-.4v-4.1c.3-.3.7 0 .9-.4-.6-.2-.6-.2-1.2 0v9.7c.5.1.9.1 1.3 0-.3-.4-.7-.1-1-.5v-4zM36 33c-.7-.1-1.4-.3-2.3.1 1 .2 1.6.2 2.3-.1z"/><path d="M15.6 30.7c0-2.5 0-4.9.1-7.4.4.8.2 1.6.3 2.3v5.1c0 .8.1 1.6-.1 2.4-.5.1-.4-.2-.5-.4-.2-1.2-.4-2.3-.6-3.5-.2-1.1-.4-2.3-.8-3.4v3.7c0 1.2 0 2.4-.1 3.7-.4-.6-.4-8.9-.1-9.9.4.2.4.6.4.9.3 1.9.7 3.8 1 5.7.2.3.2.6.4.8zM43.8 28c.7.4.8.9.8 1.5v2.3c0 1.2-.3 1.5-1.5 1.4h-.8v-9.8c.1-.1.1-.1.2-.1 1.8-.2 2.1 0 2.1 1.9 0 .9-.1 1.9-.8 2.8zm-1.1.8c1.2-1.2 1.7-2.4 1.5-4-.1-1.1-.4-1.3-1.5-1.1v5.1zm.9-.4c-1.4 1.3-.9 2.9-.9 4.4 1.3.1 1.5 0 1.6-1.2v-2.1c-.1-.4-.1-.8-.7-1.1zm-5.7.2c-1.3 1.4-.6 3-.9 4.5-.1-.1 0 0-.1 0h-.1c-.2-3 0-5.9-.1-8.9 0-.3-.1-.6.1-.9.1 0 .2-.1.3-.1 1.6-.1 1.8.1 1.8 1.7 0 1.2-.1 2.2-.9 3.1.4.8 1 1.5.9 2.5-.1.8.1 1.7-.1 2.5-.4 0-.3-.2-.3-.4v-2.1c.2-.6 0-1.3-.6-1.9zm-.7.2c1.2-1.2 1.7-2.4 1.5-4-.1-1.2-.4-1.4-1.5-1v5zm-11.8-.5v3.9c0 .9-.4 1.2-1.3 1.2-.6 0-.9-.3-1-.9v-8c0-.9.4-1.3 1.2-1.3.7 0 1.1.4 1.1 1.2v3.9zm-.4 0v-3.5c0-1-.2-1.3-.8-1.3-.5 0-.7.3-.7 1.3v6.9c0 .3 0 .5.1.8.1.3.4.4.7.4.3 0 .6-.1.7-.4v-4.2zm-5.9-1.5c-.3-.6-.2-1.2-.2-1.8 0-.3 0-.6-.1-.9-.1-.4-.3-.6-.8-.6-.4 0-.7.2-.7.6 0 1.3-.2 2.6.7 3.7 1.1 1.2 1.3 2.7 1.2 4.2-.1 1-.7 1.5-1.7 1.1-.3-.1-.5-.3-.6-.6-.1-1-.1-1.9 0-3 .4.2.3.4.3.7v2c0 .4.3.7.7.7.4 0 .7-.2.8-.6.1-1.1.3-2.3-.4-3.4-.1-.2-.2-.4-.3-.5-1.2-1.2-1.2-2.8-1.1-4.4 0-.6.4-.9 1-1 .7-.1 1.2.2 1.2.8.2 1.1.1 2.1 0 3zm-8.6 1.4v-3.8c0-.8.3-1.2 1.1-1.2s1.2.3 1.2 1.1v7.9c0 .9-.3 1.1-1.2 1.1-.8 0-1.1-.3-1.1-1.2v-3.9zm.4.1v3.9c0 .4.2.7.6.7.5 0 .8-.1.8-.6 0-.2.1-.5.1-.7v-6.7c0-.3 0-.6-.1-.9-.1-.4-.4-.5-.7-.5-.6 0-.7.4-.7.9v3.9zm15.5-4.9c.1 0 .2-.1.3-.1 1.4-.1 2-.1 2 1.7 0 1.2-.2 2.2-.9 3.1-.9 1-1.2 2.2-1.1 3.5 0 .5.1 1-.1 1.6-.4-.7-.5-8.7-.2-9.8zm.2 5.4c1.2-1.2 1.7-2.5 1.6-4-.1-1.1-.4-1.3-1.6-1v5zm2.9 4.3v-9.8c.4-.2.8-.2 1.2 0-.2.3-.6.1-.8.4v4c.2.4.7.1.9.4-.2.4-.6.1-.9.4v4.1c.2.3.6.1.8.3-.5.3-.5.3-1.2.2zm16-9.8c.4-.1.8-.1 1.2 0-.2.4-.6.1-.9.4v4.1c.3.3.7 0 .9.4-.2.3-.6.1-.9.3v4.2c.2.3.7 0 .9.4-.4.2-.8.1-1.3.1.1-3.3.1-6.6.1-9.9zm-24.9.5c-.2-.3-.6-.1-.8-.4.8-.2 1.5-.1 2.3-.1-.2.4-.7.2-1 .6v9.4c-.6-.2-.4-.6-.4-.9v-7.5c0-.4 0-.8-.1-1.1zm11.4-.4v9.2c.3.5.8.2 1.1.5-.4.3-.9.1-1.4.1v-9.8h.3zm16.1 0c.1 3.1 0 6.2 0 9.3.3.3.7.1.9.3-.5.2-.5.2-1.2.1v-9.8c.1.1.2.1.3.1zm-7.7 5.2v4.1c.3.4.7 0 1 .5-.4.2-.8.1-1.3 0v-9.7c.6-.2.6-.2 1.2 0-.2.3-.6.1-.9.4V28c.2.3.7 0 1 .4-.3.2-.7 0-1 .2zM36 33c-.7.3-1.3.3-2.3.1.9-.4 1.6-.2 2.3-.1z" fill="#fff"/><path d="M42.7 28.8v-5c1.2-.3 1.4 0 1.5 1.1.1 1.4-.4 2.7-1.5 3.9zm.9-.4c.6.2.6.7.6 1.1v2.1c0 1.2-.2 1.3-1.6 1.2.1-1.5-.4-3.1 1-4.4zm-6.4.4v-5c1.1-.4 1.4-.1 1.5 1 .1 1.6-.4 2.8-1.5 4zM25 28.3v3.5c0 .3 0 .5-.1.8-.1.3-.4.4-.7.4-.3 0-.6-.1-.7-.4-.1-.2-.1-.5-.1-.8v-6.9c0-.9.2-1.2.7-1.3.6 0 .8.3.8 1.3.1 1.1.1 2.2.1 3.4zm-14.1 0v-3.8c0-.5.2-.8.7-.9.4 0 .7.1.7.5.1.3.1.6.1.9v6.7c0 .2 0 .5-.1.7-.1.5-.4.7-.8.6-.4 0-.6-.3-.6-.7v-4zm15.7.5v-5c1.1-.4 1.5-.1 1.6 1 .1 1.5-.4 2.8-1.6 4z"/></symbol><symbol id="rutube" viewBox="0 0 30 30"><path d="M21.3 21.9c1.7 2.7 3.2 5.2 4.9 7.9h-5.8c-.3 0-.7-.5-.9-.9-1.2-1.9-2.3-3.9-3.4-5.8-.3-.4-.8-1-1.2-1-3.1-.1-6.2 0-9.4 0v8H0v-25h8.6l11.5.3c3.3.1 5.2 2 5.5 5.8.1 1.7 0 3.5 0 5.2-.1 2.8-1.5 4.7-4.3 5.5zM5.6 16.1c4 0 7.9.1 11.9 0 2.6-.1 2.8-.4 2.7-3.5 0-1.1-.4-1.8-1.4-1.8H5.7c-.1 1.8-.1 3.6-.1 5.3zM30 3c0 1.7-1.1 3-2.6 3-1.4 0-2.6-1.3-2.6-3s1.1-3 2.6-3S30 1.4 30 3z"/></symbol><symbol id="telegram" viewBox="0 0 16 16"><path d="M16 8A8 8 0 110 8a8 8 0 0116 0zM8.287 5.906c-.778.324-2.334.994-4.666 2.01-.378.15-.577.298-.595.442-.03.243.275.339.69.47l.175.055c.408.133.958.288 1.243.294.26.006.549-.1.868-.32 2.179-1.471 3.304-2.214 3.374-2.23.05-.012.12-.026.166.016.047.041.042.12.037.141-.03.129-1.227 1.241-1.846 1.817-.193.18-.33.307-.358.336a8.154 8.154 0 01-.188.186c-.38.366-.664.64.015 1.088.327.216.589.393.85.571.284.194.568.387.936.629.093.06.183.125.27.187.331.236.63.448.997.414.214-.02.435-.22.547-.82.265-1.417.786-4.486.906-5.751a1.426 1.426 0 00-.013-.315.337.337 0 00-.114-.217.526.526 0 00-.31-.093c-.3.005-.763.166-2.984 1.09z"/></symbol><symbol id="vk" viewBox="0 0 30 30"><path d="M18.9 19.6c1-.2 2.5 2.2 3.9 3.5 1.2.7 2 .5 2 .5h3.9s2-.2 1-1.7c0-.2-.5-1.2-3-3.5s-2.2-2 .7-5.9c1.7-2.5 2.5-3.9 2.2-4.7.2-.7-1.2-.7-1.2-.7H24c-.5 0-.7.2-1 .5 0 0-.7 2-1.7 3.5-1.7 3.7-2.7 3.9-3 3.7-.7-.5-.5-2-.5-3 0-3.2.5-4.7-1-4.9-.5-.2-1-.5-2.2-.5-1.5 0-3 0-3.7.5-.5.2-.7.7-.5.7.2 0 1 .2 1.2.7.5.5.5 2 .5 2s.2 3.9-.7 4.4c-.5.2-1.2-.2-3.2-3.5-.7-1.4-1.4-3.4-1.4-3.4s-.3-.2-.5-.5c-.3 0-.5-.2-.5-.2H1.4s-.7 0-1 .2c-.2.2 0 .7 0 .7s3.2 7.9 7.2 11.8c3.5 3.7 7.4 3.5 7.4 3.5h1.7s.5 0 .7-.2.2-.7.2-.7.3-2.5 1.3-2.8z"/></symbol><symbol id="yappy" viewBox="0 0 30 30"><path d="M0 5.7C1.5 4.1 3 2.6 4.5 1L15 12.1 25.5 1c1.5 1.6 3 3.1 4.5 4.7-.3.3-.5.5-.7.8-2.4 2.5-4.7 5-7.1 7.4-2 2.1-4.5 3.1-7.3 3.1s-5.2-1.1-7.2-3.2c-2.5-2.6-5-5.2-7.4-7.9-.1 0-.2 0-.3-.2zM18.2 29h-6.3v-8.1c0-.9.5-1.6 1.3-1.9.2-.1.5-.1.7-.1h2.2c1.4 0 2.1.8 2.1 2.2V29z"/></symbol><symbol id="youtube" viewBox="0 0 16 16"><path d="M8.051 1.999h.089c.822.003 4.987.033 6.11.335a2.01 2.01 0 011.415 1.42c.101.38.172.883.22 1.402l.01.104.022.26.008.104c.065.914.073 1.77.074 1.957v.075c-.001.194-.01 1.108-.082 2.06l-.008.105-.009.104c-.05.572-.124 1.14-.235 1.558a2.007 2.007 0 01-1.415 1.42c-1.16.312-5.569.334-6.18.335h-.142c-.309 0-1.587-.006-2.927-.052l-.17-.006-.087-.004-.171-.007-.171-.007c-1.11-.049-2.167-.128-2.654-.26a2.007 2.007 0 01-1.415-1.419c-.111-.417-.185-.986-.235-1.558L.09 9.82l-.008-.104A31.4 31.4 0 010 7.68v-.123c.002-.215.01-.958.064-1.778l.007-.103.003-.052.008-.104.022-.26.01-.104c.048-.519.119-1.023.22-1.402a2.007 2.007 0 011.415-1.42c.487-.13 1.544-.21 2.654-.26l.17-.007.172-.006.086-.003.171-.007A99.788 99.788 0 017.858 2h.193zM6.4 5.209v4.818l4.157-2.408L6.4 5.209z"/></symbol></svg>