<svg xmlns="http://www.w3.org/2000/svg" xmlns:xlink="http://www.w3.org/1999/xlink"><symbol id="dzen" viewBox="0 0 20 20"><path d="M19.6 9.6c.1 0 .2-.1.3-.1.1-.2.1-.3.1-.4-.4-4.8-4.3-8.6-9.1-9.1-.1 0-.2 0-.3.1-.1.1-.1.2-.1.3 0 6.4.9 9.1 9.1 9.2zm0 .8c-8.2.1-9 2.7-9.1 9.1 0 .1 0 .2.1.3.1.1.2.1.3.1 4.8-.4 8.6-4.3 9.1-9.1 0-.1 0-.2-.1-.3-.1 0-.2-.1-.3-.1zM9 0C4.2.5.4 4.3 0 9.1c0 .1 0 .2.1.3.1.1.2.1.3.1 8.2-.1 9-2.7 9.1-9.1 0-.1 0-.2-.1-.3C9.3 0 9.2 0 9 0zM.4 10.4c-.1 0-.2 0-.3.1-.1.2-.1.3-.1.4.4 4.8 4.2 8.6 9 9.1.1 0 .2 0 .3-.1.1-.1.1-.2.1-.3.1-6.4-.8-9.1-9-9.2z"/></symbol><symbol id="instagram" viewBox="0 0 16 16"><path d="M8 0C5.829 0 5.556.01 4.703.048 3.85.088 3.269.222 2.76.42a3.917 3.917 0 00-1.417.923A3.927 3.927 0 00.42 2.76C.222 3.268.087 3.85.048 4.7.01 5.555 0 5.827 0 8.001c0 2.172.01 2.444.048 3.297.04.852.174 1.433.372 1.942.205.526.478.972.923 1.417.444.445.89.719 1.416.923.51.198 1.09.333 1.942.372C5.555 15.99 5.827 16 8 16s2.444-.01 3.298-.048c.851-.04 1.434-.174 1.943-.372a3.916 3.916 0 001.416-.923c.445-.445.718-.891.923-1.417.197-.509.332-1.09.372-1.942C15.99 10.445 16 10.173 16 8s-.01-2.445-.048-3.299c-.04-.851-.175-1.433-.372-1.941a3.926 3.926 0 00-.923-1.417A3.911 3.911 0 0013.24.42c-.51-.198-1.092-.333-1.943-.372C10.443.01 10.172 0 7.998 0h.003zm-.717 1.442h.718c2.136 0 2.389.007 3.232.046.78.035 1.204.166 1.486.275.373.145.64.319.92.599.28.28.453.546.598.92.11.281.24.705.275 1.485.039.843.047 1.096.047 3.231s-.008 2.389-.047 3.232c-.035.78-.166 1.203-.275 1.485a2.47 2.47 0 01-.599.919c-.28.28-.546.453-.92.598-.28.11-.704.24-1.485.276-.843.038-1.096.047-3.232.047s-2.39-.009-3.233-.047c-.78-.036-1.203-.166-1.485-.276a2.478 2.478 0 01-.92-.598 2.48 2.48 0 01-.6-.92c-.109-.281-.24-.705-.275-1.485-.038-.843-.046-1.096-.046-3.233 0-2.136.008-2.388.046-3.231.036-.78.166-1.204.276-1.486.145-.373.319-.64.599-.92.28-.28.546-.453.92-.598.282-.11.705-.24 1.485-.276.738-.034 1.024-.044 2.515-.045v.002zm4.988 1.328a.96.96 0 100 1.92.96.96 0 000-1.92zm-4.27 1.122a4.109 4.109 0 100 8.217 4.109 4.109 0 000-8.217zm0 1.441a2.667 2.667 0 110 5.334 2.667 2.667 0 010-5.334z"/></symbol><symbol id="rutube" viewBox="0 0 16 16"><path d="M11.37 10.83c.9 1.25 1.72 2.4 2.6 3.64-1.09 0-2.09.02-3.1-.02-.17-.01-.35-.25-.47-.43-.62-.89-1.21-1.8-1.83-2.67-.15-.2-.41-.45-.62-.46-1.64-.04-3.29-.02-5.03-.02v3.68H0V3.07c1.52 0 3.05-.02 4.57 0 2.05.03 4.09.08 6.14.12 1.75.03 2.76.91 2.92 2.66.07.79.02 1.59 0 2.38-.04 1.38-.76 2.22-2.26 2.6zm-8.4-2.64c2.14 0 4.24.03 6.33-.01 1.39-.03 1.48-.2 1.42-1.61-.02-.52-.22-.82-.75-.82-2.33-.01-4.65 0-7.01 0 .01.83.01 1.64.01 2.44zM16 2.16c0 .76-.61 1.37-1.37 1.37-.76 0-1.37-.61-1.37-1.37S13.87.79 14.63.79C15.39.8 16 1.41 16 2.16z"/></symbol><symbol id="telegram" viewBox="0 0 16 16"><path d="M16 8A8 8 0 110 8a8 8 0 0116 0zM8.287 5.906c-.778.324-2.334.994-4.666 2.01-.378.15-.577.298-.595.442-.03.243.275.339.69.47l.175.055c.408.133.958.288 1.243.294.26.006.549-.1.868-.32 2.179-1.471 3.304-2.214 3.374-2.23.05-.012.12-.026.166.016.047.041.042.12.037.141-.03.129-1.227 1.241-1.846 1.817-.193.18-.33.307-.358.336a8.154 8.154 0 01-.188.186c-.38.366-.664.64.015 1.088.327.216.589.393.85.571.284.194.568.387.936.629.093.06.183.125.27.187.331.236.63.448.997.414.214-.02.435-.22.547-.82.265-1.417.786-4.486.906-5.751a1.426 1.426 0 00-.013-.315.337.337 0 00-.114-.217.526.526 0 00-.31-.093c-.3.005-.763.166-2.984 1.09z"/></symbol><symbol id="vk" viewBox="0 0 13 8"><g fill="none"><path d="M7.723 6.052c.442-.143 1.01.944 1.613 1.36.452.316.8.248.8.248l1.607-.023s.84-.052.444-.72c-.033-.055-.233-.495-1.197-1.4-1.008-.945-.872-.792.342-2.427.74-.997 1.035-1.606.942-1.866-.088-.25-.631-.184-.631-.184l-1.812.012c-.177 0-.326.055-.395.239 0 .002-.287.771-.669 1.425C7.961 4.1 7.64 4.174 7.506 4.087c-.306-.2-.229-.804-.229-1.233 0-1.342.2-1.9-.391-2.045-.198-.049-.343-.08-.847-.085-.644-.01-1.192 0-1.502.153-.206.103-.364.33-.268.342.12.017.39.074.535.272.185.255.18.828.18.828s.106 1.58-.25 1.775c-.245.135-.58-.14-1.298-1.396-.367-.643-.645-1.353-.645-1.353s-.053-.132-.15-.204c-.116-.086-.279-.113-.279-.113l-1.72.01s-.258.008-.353.122c-.084.101-.007.31-.007.31S1.63 4.655 3.155 6.26c1.398 1.474 2.987 1.376 2.987 1.376h.72s.218-.025.329-.144c.103-.111.099-.32.099-.32s-.015-.977.433-1.12z" fill="#030A1A"/></g></symbol><symbol id="youtube" viewBox="0 0 16 16"><path d="M8.051 1.999h.089c.822.003 4.987.033 6.11.335a2.01 2.01 0 011.415 1.42c.101.38.172.883.22 1.402l.01.104.022.26.008.104c.065.914.073 1.77.074 1.957v.075c-.001.194-.01 1.108-.082 2.06l-.008.105-.009.104c-.05.572-.124 1.14-.235 1.558a2.007 2.007 0 01-1.415 1.42c-1.16.312-5.569.334-6.18.335h-.142c-.309 0-1.587-.006-2.927-.052l-.17-.006-.087-.004-.171-.007-.171-.007c-1.11-.049-2.167-.128-2.654-.26a2.007 2.007 0 01-1.415-1.419c-.111-.417-.185-.986-.235-1.558L.09 9.82l-.008-.104A31.4 31.4 0 010 7.68v-.123c.002-.215.01-.958.064-1.778l.007-.103.003-.052.008-.104.022-.26.01-.104c.048-.519.119-1.023.22-1.402a2.007 2.007 0 011.415-1.42c.487-.13 1.544-.21 2.654-.26l.17-.007.172-.006.086-.003.171-.007A99.788 99.788 0 017.858 2h.193zM6.4 5.209v4.818l4.157-2.408L6.4 5.209z"/></symbol></svg>